# xmcd
#
# Track frame offsets:
#	150
#	25014
#	49730
#	63365
#	89136
#	110678
#	129181
#	159635
#	174517
#	203416
#	215311
#	272324
#
# Disc length: 4017 seconds
#
# Revision: 3
# Processed by: cddbd v1.5.1PL0 Copyright (c) Steve Scherf et al.
# Submitted via: EasyCDDAExtractor 5.0.6
#
DISCID=9c0faf0c
DTITLE=Guy Mintz - hashaon hameorer
DYEAR=5765
DGENRE=
TTITLE0=ki mitzyon
TTITLE1=iei ratzon
TTITLE2=nigun shel simha
TTITLE3=ashaon ameoer
TTITLE4=ivri anohi
TTITLE5=atzadikim ateorim
TTITLE6=daber elav
TTITLE7=shlah orha
TTITLE8=dvekut
TTITLE9=raza de shabat
TTITLE10=shabat kodeh 
TTITLE11=iei ratzon 2
EXTD=
EXTT0=
EXTT1=
EXTT2=
EXTT3=
EXTT4=
EXTT5=
EXTT6=
EXTT7=
EXTT8=
EXTT9=
EXTT10=
EXTT11=
PLAYORDER=
